<?xml version="1.0" encoding="utf-8"?>
<!-- Generator: Adobe Illustrator 17.0.1, SVG Export Plug-In . SVG Version: 6.00 Build 0)  -->
<!DOCTYPE svg PUBLIC "-//W3C//DTD SVG 1.1//EN" "http://www.w3.org/Graphics/SVG/1.1/DTD/svg11.dtd">
<svg xmlns="http://www.w3.org/2000/svg" xmlns:xlink="http://www.w3.org/1999/xlink" version="1.1" id="Ebene_1" x="0px" y="0px" width="425.913px" height="340.128px" viewBox="0 0 425.913 340.128" enable-background="new 0 0 425.913 340.128" xml:space="preserve">
<g>
	<path d="M215.053,0.001c-1.218-0.005-2.432,0.003-3.65,0.02c-30.74-0.037-61.219,7.333-89.066,20.118   c-4.101,1.053-7.157,4.368-11.12,5.765C63.18,51.659,26.239,96.786,9.85,148.783c-16.6,51.791-11.997,109.96,12.13,158.551   c5.671,11.53,12.375,22.474,20.094,32.751c8.266-0.141,16.538,0.277,24.797-0.183c1.709-2.813,5.05-3.964,7.246-6.343   l19.087-15.436l-10.939-13.493c-9.369,7.574-18.68,15.235-28.169,22.65c-13.878-19.358-24.3-41.206-30.443-64.237   c10.391-2.439,20.781-4.881,31.174-7.321l-3.972-16.907c-10.31,2.377-20.541,5.052-30.991,6.731   c-3.627-22.346-3.518-45.384,0.569-67.638c10.716,2.185,21.427,4.398,32.14,6.602l3.489-16.939   c-10.587-2.299-21.207-4.43-31.828-6.56c6.288-22.536,16.324-43.936,30.143-62.84c7.365,5.191,14.748,10.355,22.123,15.532   l9.995-14.233c-7.088-4.965-14.327-9.727-21.073-15.146c15.208-17.313,33.444-31.944,53.663-43.121   c3.65,7.977,7.288,15.959,10.959,23.926l15.748-7.212c-3.717-8.13-7.418-16.268-11.152-24.389   c21.884-9.655,45.605-15.057,69.517-16.102c0.045,8.524,0.114,17.046,0.171,25.57l17.348-0.141   c-0.059-8.468-0.128-16.939-0.173-25.408c23.556,1.05,46.879,6.3,68.574,15.49c-3.816,8.321-7.606,16.654-11.412,24.98   l15.748,7.212c3.767-8.227,7.533-16.456,11.315-24.678c20.54,11.14,39.096,25.978,54.456,43.507   c-7.409,5.173-14.81,10.357-22.211,15.543l9.973,14.201c7.699-5.401,15.416-10.776,23.101-16.197   c12.957,17.754,22.979,37.636,29.445,58.653c-12.03,2.541-28.204,4.98-40.245,7.473c2.858,21.219,3.828,40.193,1.891,58.321   l45.708,6.484l-1.427,11.292l-45.891-6.504c-2.09,11.651-5.509,23.061-10.552,34.619c6.76,3.737,13.539,7.442,20.342,11.1   c6.777,3.257,13.97,8.402,15.436,16.263c2.232,10.899-9.183,21.825-19.999,18.979c-10.327-4.777-20.562-9.747-30.744-14.826   c-7.645,14.178-16.296,27.821-25.861,40.771c24.836-0.112,49.673-0.002,74.51-0.043c21.185-33.623,36.585-71.442,41.328-111.103   c3.911-38.804-4.822-78.296-22.286-112.918c-18.012-35.444-46.102-65.404-80.166-85.748   C290.261,10.932,252.806,0.132,215.053,0.001L215.053,0.001z M211.855,186.826c-0.339-0.003-0.681,0.002-1.02,0.012   c-15.478-0.115-28.707,16.154-24.916,31.324c2.291,11.27,12.741,20.701,24.401,20.813c11.302,0.508,22.727-6.911,25.944-17.937   c3.494-10.617-0.483-23.532-10.079-29.606C221.996,188.549,216.943,186.891,211.855,186.826L211.855,186.826z M211.855,186.826" fill="#000000"/>
	<path d="M216.237,202.067c-9.505-0.532-17.122,11.127-12.544,19.571c3.609,6.852,11.868,5.022,18.016,8.814   c48.438,24.312,96.367,49.775,145.084,73.55c8.658,4.839,14.476-4.943,5.99-10.216c-2.526-1.672-7.474-5.716-9.994-7.156   c-49.096-27.041-95.605-57.942-144.998-84.451C217.277,202.096,216.756,202.077,216.237,202.067L216.237,202.067L216.237,202.067z    M216.237,202.067" fill="#CB0033"/>
</g>
<desc>3pQ29weXJpZ2h0IGJ5IHNoaXJ0bGFib3IuZGU=</desc></svg>
